<svg xmlns="http://www.w3.org/2000/svg"  viewBox="0 0 64 64" width="512px" height="512px" baseProfile="basic"><ellipse cx="32" cy="61" opacity=".3" rx="19" ry="3"/><path fill="#ffce29" d="M56.92,47.64C56.43,51.06,53.59,54,49.73,54H14.27c-3.86,0-6.7-2.94-7.19-6.36	c-0.23-1.61,0.05-3.33,1-4.9L25.82,13.3c0.95-1.58,2.34-2.63,3.87-3.15c1.49-0.51,3.13-0.51,4.62,0c1.53,0.52,2.92,1.57,3.87,3.15	l17.74,29.44C56.87,44.31,57.15,46.03,56.92,47.64z"/><path fill="#fd3c4f" d="M30.612,38.107c-0.379-0.366-0.619-0.886-0.724-1.564l-2.034-12.162	c-0.025-0.158-0.038-0.366-0.038-0.627c0-1.173,0.396-2.091,1.192-2.756S30.801,20,31.999,20c1.225,0,2.229,0.339,3.012,1.017	c0.781,0.678,1.173,1.604,1.173,2.777c0,0.261-0.013,0.469-0.04,0.625l-2.072,12.124c-0.078,0.678-0.307,1.198-0.684,1.564	c-0.379,0.364-0.842,0.547-1.389,0.547S30.989,38.471,30.612,38.107z M29.281,46.905c-0.718-0.729-1.076-1.628-1.076-2.697	s0.358-1.968,1.076-2.699c0.718-0.73,1.623-1.095,2.718-1.095c1.069,0,1.962,0.364,2.68,1.095c0.716,0.73,1.076,1.629,1.076,2.699	c0,1.069-0.36,1.968-1.076,2.697c-0.718,0.73-1.61,1.095-2.68,1.095C30.904,48,29.999,47.636,29.281,46.905z"/><path fill="#fff" d="M30.1,15.88L12.37,45.32c-0.94,1.56-2.6,2.42-4.29,2.42c-0.33,0-0.67-0.03-1-0.1	c-0.23-1.61,0.05-3.33,1-4.9L25.82,13.3c0.95-1.58,2.34-2.63,3.87-3.15C30.99,11.74,31.21,14.02,30.1,15.88z" opacity=".3"/><path fill="#fff" d="M16.499,37c-0.263,0-0.529-0.069-0.771-0.214c-0.711-0.426-0.941-1.348-0.515-2.058l3-5	c0.426-0.71,1.349-0.939,2.058-0.514c0.711,0.426,0.941,1.348,0.515,2.058l-3,5C17.505,36.74,17.008,37,16.499,37z"/><path d="M56.92,47.64C56.43,51.06,53.59,54,49.73,54H36c0-2.76,2.24-5,5-5h8.73c1.43,0,2.12-1.24,2.24-2.07	c0.08-0.57-0.03-1.11-0.33-1.6l-4.97-8.25c-1.42-2.36-0.66-5.44,1.71-6.86l7.54,12.52C56.87,44.31,57.15,46.03,56.92,47.64z" opacity=".15"/><line x1="46.5" x2="51.5" y1="17.5" y2="13.5" fill="none" stroke="#fd3c4f" stroke-linecap="round" stroke-miterlimit="10" stroke-width="3"/><line x1="50" x2="56.5" y1="23" y2="22.5" fill="none" stroke="#fd3c4f" stroke-linecap="round" stroke-miterlimit="10" stroke-width="3"/><line x1="17.5" x2="12.5" y1="17.5" y2="13.5" fill="none" stroke="#fd3c4f" stroke-linecap="round" stroke-miterlimit="10" stroke-width="3"/><line x1="14" x2="7.5" y1="23" y2="22.5" fill="none" stroke="#fd3c4f" stroke-linecap="round" stroke-miterlimit="10" stroke-width="3"/></svg>